<mxfile host="app.diagrams.net" modified="2023-12-13T14:59:35.895Z" agent="Mozilla/5.0 (Windows NT 10.0; Win64; x64) AppleWebKit/537.36 (KHTML, like Gecko) Chrome/117.0.0.0 Safari/537.36" etag="JRgrie4L3pO1KWpSHQo-" version="22.1.8" type="device">
  <diagram name="Trang-1" id="llpY1bl1olVjTmROsvrA">
    <mxGraphModel dx="684" dy="770" grid="1" gridSize="10" guides="1" tooltips="1" connect="1" arrows="1" fold="1" page="1" pageScale="1" pageWidth="827" pageHeight="1169" math="0" shadow="0">
      <root>
        <mxCell id="0" />
        <mxCell id="1" parent="0" />
        <mxCell id="Ce9PWzFnnpV4fpaLvh9y-5" value="Đăng nhập" style="rounded=1;whiteSpace=wrap;html=1;" vertex="1" parent="1">
          <mxGeometry x="360" y="82" width="150" height="40" as="geometry" />
        </mxCell>
        <mxCell id="Ce9PWzFnnpV4fpaLvh9y-6" value="Đăng ký" style="rounded=1;whiteSpace=wrap;html=1;" vertex="1" parent="1">
          <mxGeometry x="360" y="30" width="150" height="40" as="geometry" />
        </mxCell>
        <mxCell id="Ce9PWzFnnpV4fpaLvh9y-7" value="Xem menu" style="rounded=1;whiteSpace=wrap;html=1;" vertex="1" parent="1">
          <mxGeometry x="360" y="134" width="150" height="40" as="geometry" />
        </mxCell>
        <mxCell id="Ce9PWzFnnpV4fpaLvh9y-8" value="Gọi món" style="rounded=1;whiteSpace=wrap;html=1;" vertex="1" parent="1">
          <mxGeometry x="360" y="237" width="150" height="40" as="geometry" />
        </mxCell>
        <mxCell id="Ce9PWzFnnpV4fpaLvh9y-9" value="Xem hóa đơn" style="rounded=1;whiteSpace=wrap;html=1;" vertex="1" parent="1">
          <mxGeometry x="360" y="185" width="150" height="40" as="geometry" />
        </mxCell>
        <mxCell id="Ce9PWzFnnpV4fpaLvh9y-10" value="Xem danh sách chờ" style="rounded=1;whiteSpace=wrap;html=1;" vertex="1" parent="1">
          <mxGeometry x="360" y="445" width="150" height="40" as="geometry" />
        </mxCell>
        <mxCell id="Ce9PWzFnnpV4fpaLvh9y-11" value="Thêm món ăn" style="rounded=1;whiteSpace=wrap;html=1;" vertex="1" parent="1">
          <mxGeometry x="360" y="393" width="150" height="40" as="geometry" />
        </mxCell>
        <mxCell id="Ce9PWzFnnpV4fpaLvh9y-12" value="Sửa món ăn" style="rounded=1;whiteSpace=wrap;html=1;" vertex="1" parent="1">
          <mxGeometry x="360" y="289" width="150" height="40" as="geometry" />
        </mxCell>
        <mxCell id="Ce9PWzFnnpV4fpaLvh9y-13" value="Xóa món ăn" style="rounded=1;whiteSpace=wrap;html=1;" vertex="1" parent="1">
          <mxGeometry x="360" y="341" width="150" height="40" as="geometry" />
        </mxCell>
        <mxCell id="Ce9PWzFnnpV4fpaLvh9y-14" value="Cập nhật trạng thái đơn" style="rounded=1;whiteSpace=wrap;html=1;" vertex="1" parent="1">
          <mxGeometry x="360" y="496" width="150" height="40" as="geometry" />
        </mxCell>
        <mxCell id="Ce9PWzFnnpV4fpaLvh9y-15" value="Xem thống kê" style="rounded=1;whiteSpace=wrap;html=1;" vertex="1" parent="1">
          <mxGeometry x="360" y="548" width="150" height="40" as="geometry" />
        </mxCell>
        <mxCell id="Ce9PWzFnnpV4fpaLvh9y-16" value="Quản lý user" style="rounded=1;whiteSpace=wrap;html=1;" vertex="1" parent="1">
          <mxGeometry x="360" y="600" width="150" height="40" as="geometry" />
        </mxCell>
        <mxCell id="Ce9PWzFnnpV4fpaLvh9y-21" style="edgeStyle=none;rounded=0;orthogonalLoop=1;jettySize=auto;html=1;exitX=1;exitY=0.3333333333333333;exitDx=0;exitDy=0;exitPerimeter=0;entryX=0;entryY=0.5;entryDx=0;entryDy=0;" edge="1" parent="1" source="Ce9PWzFnnpV4fpaLvh9y-1" target="Ce9PWzFnnpV4fpaLvh9y-6">
          <mxGeometry relative="1" as="geometry" />
        </mxCell>
        <mxCell id="Ce9PWzFnnpV4fpaLvh9y-22" style="edgeStyle=none;rounded=0;orthogonalLoop=1;jettySize=auto;html=1;exitX=1;exitY=0.3333333333333333;exitDx=0;exitDy=0;exitPerimeter=0;entryX=0;entryY=0.5;entryDx=0;entryDy=0;" edge="1" parent="1" source="Ce9PWzFnnpV4fpaLvh9y-1" target="Ce9PWzFnnpV4fpaLvh9y-5">
          <mxGeometry relative="1" as="geometry" />
        </mxCell>
        <mxCell id="Ce9PWzFnnpV4fpaLvh9y-23" style="edgeStyle=none;rounded=0;orthogonalLoop=1;jettySize=auto;html=1;exitX=1;exitY=0.3333333333333333;exitDx=0;exitDy=0;exitPerimeter=0;entryX=0;entryY=0.5;entryDx=0;entryDy=0;" edge="1" parent="1" source="Ce9PWzFnnpV4fpaLvh9y-1" target="Ce9PWzFnnpV4fpaLvh9y-7">
          <mxGeometry relative="1" as="geometry" />
        </mxCell>
        <mxCell id="Ce9PWzFnnpV4fpaLvh9y-24" style="edgeStyle=none;rounded=0;orthogonalLoop=1;jettySize=auto;html=1;exitX=1;exitY=0.3333333333333333;exitDx=0;exitDy=0;exitPerimeter=0;entryX=0;entryY=0.5;entryDx=0;entryDy=0;" edge="1" parent="1" source="Ce9PWzFnnpV4fpaLvh9y-1" target="Ce9PWzFnnpV4fpaLvh9y-9">
          <mxGeometry relative="1" as="geometry" />
        </mxCell>
        <mxCell id="Ce9PWzFnnpV4fpaLvh9y-25" style="edgeStyle=none;rounded=0;orthogonalLoop=1;jettySize=auto;html=1;exitX=1;exitY=0.3333333333333333;exitDx=0;exitDy=0;exitPerimeter=0;entryX=0;entryY=0.5;entryDx=0;entryDy=0;" edge="1" parent="1" source="Ce9PWzFnnpV4fpaLvh9y-1" target="Ce9PWzFnnpV4fpaLvh9y-8">
          <mxGeometry relative="1" as="geometry" />
        </mxCell>
        <mxCell id="Ce9PWzFnnpV4fpaLvh9y-1" value="User" style="shape=umlActor;verticalLabelPosition=bottom;verticalAlign=top;html=1;outlineConnect=0;" vertex="1" parent="1">
          <mxGeometry x="220" y="114" width="30" height="60" as="geometry" />
        </mxCell>
        <mxCell id="Ce9PWzFnnpV4fpaLvh9y-35" style="edgeStyle=none;rounded=0;orthogonalLoop=1;jettySize=auto;html=1;exitX=1;exitY=0.3333333333333333;exitDx=0;exitDy=0;exitPerimeter=0;entryX=0;entryY=0.5;entryDx=0;entryDy=0;" edge="1" parent="1" source="Ce9PWzFnnpV4fpaLvh9y-2" target="Ce9PWzFnnpV4fpaLvh9y-16">
          <mxGeometry relative="1" as="geometry" />
        </mxCell>
        <mxCell id="Ce9PWzFnnpV4fpaLvh9y-36" style="edgeStyle=none;rounded=0;orthogonalLoop=1;jettySize=auto;html=1;exitX=1;exitY=0.3333333333333333;exitDx=0;exitDy=0;exitPerimeter=0;entryX=0;entryY=0.5;entryDx=0;entryDy=0;" edge="1" parent="1" source="Ce9PWzFnnpV4fpaLvh9y-2" target="Ce9PWzFnnpV4fpaLvh9y-15">
          <mxGeometry relative="1" as="geometry" />
        </mxCell>
        <mxCell id="Ce9PWzFnnpV4fpaLvh9y-37" style="edgeStyle=none;rounded=0;orthogonalLoop=1;jettySize=auto;html=1;exitX=1;exitY=0.3333333333333333;exitDx=0;exitDy=0;exitPerimeter=0;entryX=0;entryY=0.5;entryDx=0;entryDy=0;" edge="1" parent="1" source="Ce9PWzFnnpV4fpaLvh9y-2" target="Ce9PWzFnnpV4fpaLvh9y-11">
          <mxGeometry relative="1" as="geometry" />
        </mxCell>
        <mxCell id="Ce9PWzFnnpV4fpaLvh9y-38" style="edgeStyle=none;rounded=0;orthogonalLoop=1;jettySize=auto;html=1;exitX=1;exitY=0.3333333333333333;exitDx=0;exitDy=0;exitPerimeter=0;entryX=0;entryY=0.5;entryDx=0;entryDy=0;" edge="1" parent="1" source="Ce9PWzFnnpV4fpaLvh9y-2" target="Ce9PWzFnnpV4fpaLvh9y-13">
          <mxGeometry relative="1" as="geometry" />
        </mxCell>
        <mxCell id="Ce9PWzFnnpV4fpaLvh9y-39" style="edgeStyle=none;rounded=0;orthogonalLoop=1;jettySize=auto;html=1;exitX=1;exitY=0.3333333333333333;exitDx=0;exitDy=0;exitPerimeter=0;entryX=0;entryY=0.5;entryDx=0;entryDy=0;" edge="1" parent="1" source="Ce9PWzFnnpV4fpaLvh9y-2" target="Ce9PWzFnnpV4fpaLvh9y-12">
          <mxGeometry relative="1" as="geometry" />
        </mxCell>
        <mxCell id="Ce9PWzFnnpV4fpaLvh9y-40" style="edgeStyle=none;rounded=0;orthogonalLoop=1;jettySize=auto;html=1;exitX=1;exitY=0.3333333333333333;exitDx=0;exitDy=0;exitPerimeter=0;" edge="1" parent="1" source="Ce9PWzFnnpV4fpaLvh9y-2">
          <mxGeometry relative="1" as="geometry">
            <mxPoint x="360" y="150" as="targetPoint" />
          </mxGeometry>
        </mxCell>
        <mxCell id="Ce9PWzFnnpV4fpaLvh9y-41" style="edgeStyle=none;rounded=0;orthogonalLoop=1;jettySize=auto;html=1;exitX=1;exitY=0.3333333333333333;exitDx=0;exitDy=0;exitPerimeter=0;entryX=0;entryY=0.5;entryDx=0;entryDy=0;" edge="1" parent="1" source="Ce9PWzFnnpV4fpaLvh9y-2" target="Ce9PWzFnnpV4fpaLvh9y-5">
          <mxGeometry relative="1" as="geometry" />
        </mxCell>
        <mxCell id="Ce9PWzFnnpV4fpaLvh9y-2" value="Admin" style="shape=umlActor;verticalLabelPosition=bottom;verticalAlign=top;html=1;outlineConnect=0;" vertex="1" parent="1">
          <mxGeometry x="220" y="420" width="30" height="60" as="geometry" />
        </mxCell>
        <mxCell id="Ce9PWzFnnpV4fpaLvh9y-27" style="edgeStyle=none;rounded=0;orthogonalLoop=1;jettySize=auto;html=1;exitX=0;exitY=0.3333333333333333;exitDx=0;exitDy=0;exitPerimeter=0;entryX=1;entryY=0.5;entryDx=0;entryDy=0;" edge="1" parent="1" source="Ce9PWzFnnpV4fpaLvh9y-3" target="Ce9PWzFnnpV4fpaLvh9y-5">
          <mxGeometry relative="1" as="geometry" />
        </mxCell>
        <mxCell id="Ce9PWzFnnpV4fpaLvh9y-28" style="edgeStyle=none;rounded=0;orthogonalLoop=1;jettySize=auto;html=1;exitX=0;exitY=0.3333333333333333;exitDx=0;exitDy=0;exitPerimeter=0;entryX=1;entryY=0.5;entryDx=0;entryDy=0;" edge="1" parent="1" source="Ce9PWzFnnpV4fpaLvh9y-3" target="Ce9PWzFnnpV4fpaLvh9y-7">
          <mxGeometry relative="1" as="geometry" />
        </mxCell>
        <mxCell id="Ce9PWzFnnpV4fpaLvh9y-29" style="edgeStyle=none;rounded=0;orthogonalLoop=1;jettySize=auto;html=1;exitX=0;exitY=0.3333333333333333;exitDx=0;exitDy=0;exitPerimeter=0;entryX=1;entryY=0.5;entryDx=0;entryDy=0;" edge="1" parent="1" source="Ce9PWzFnnpV4fpaLvh9y-3" target="Ce9PWzFnnpV4fpaLvh9y-12">
          <mxGeometry relative="1" as="geometry" />
        </mxCell>
        <mxCell id="Ce9PWzFnnpV4fpaLvh9y-30" style="edgeStyle=none;rounded=0;orthogonalLoop=1;jettySize=auto;html=1;exitX=0;exitY=0.3333333333333333;exitDx=0;exitDy=0;exitPerimeter=0;entryX=1;entryY=0.5;entryDx=0;entryDy=0;" edge="1" parent="1" source="Ce9PWzFnnpV4fpaLvh9y-3" target="Ce9PWzFnnpV4fpaLvh9y-13">
          <mxGeometry relative="1" as="geometry" />
        </mxCell>
        <mxCell id="Ce9PWzFnnpV4fpaLvh9y-31" style="edgeStyle=none;rounded=0;orthogonalLoop=1;jettySize=auto;html=1;exitX=0;exitY=0.3333333333333333;exitDx=0;exitDy=0;exitPerimeter=0;entryX=1;entryY=0.5;entryDx=0;entryDy=0;" edge="1" parent="1" source="Ce9PWzFnnpV4fpaLvh9y-3" target="Ce9PWzFnnpV4fpaLvh9y-11">
          <mxGeometry relative="1" as="geometry" />
        </mxCell>
        <mxCell id="Ce9PWzFnnpV4fpaLvh9y-32" style="edgeStyle=none;rounded=0;orthogonalLoop=1;jettySize=auto;html=1;exitX=0;exitY=0.3333333333333333;exitDx=0;exitDy=0;exitPerimeter=0;entryX=1;entryY=0.5;entryDx=0;entryDy=0;" edge="1" parent="1" source="Ce9PWzFnnpV4fpaLvh9y-3" target="Ce9PWzFnnpV4fpaLvh9y-10">
          <mxGeometry relative="1" as="geometry" />
        </mxCell>
        <mxCell id="Ce9PWzFnnpV4fpaLvh9y-33" style="edgeStyle=none;rounded=0;orthogonalLoop=1;jettySize=auto;html=1;exitX=0;exitY=0.3333333333333333;exitDx=0;exitDy=0;exitPerimeter=0;entryX=1;entryY=0.5;entryDx=0;entryDy=0;" edge="1" parent="1" source="Ce9PWzFnnpV4fpaLvh9y-3" target="Ce9PWzFnnpV4fpaLvh9y-14">
          <mxGeometry relative="1" as="geometry" />
        </mxCell>
        <mxCell id="Ce9PWzFnnpV4fpaLvh9y-3" value="Staff" style="shape=umlActor;verticalLabelPosition=bottom;verticalAlign=top;html=1;outlineConnect=0;" vertex="1" parent="1">
          <mxGeometry x="620" y="290" width="30" height="60" as="geometry" />
        </mxCell>
        <mxCell id="Ce9PWzFnnpV4fpaLvh9y-61" style="edgeStyle=orthogonalEdgeStyle;rounded=0;orthogonalLoop=1;jettySize=auto;html=1;exitX=0.5;exitY=1;exitDx=0;exitDy=0;entryX=0.5;entryY=0;entryDx=0;entryDy=0;" edge="1" parent="1" source="Ce9PWzFnnpV4fpaLvh9y-42" target="Ce9PWzFnnpV4fpaLvh9y-44">
          <mxGeometry relative="1" as="geometry" />
        </mxCell>
        <mxCell id="Ce9PWzFnnpV4fpaLvh9y-42" value="" style="ellipse;html=1;shape=endState;fillColor=#000000;strokeColor=#ff0000;" vertex="1" parent="1">
          <mxGeometry x="190" y="710" width="30" height="30" as="geometry" />
        </mxCell>
        <mxCell id="Ce9PWzFnnpV4fpaLvh9y-59" style="edgeStyle=none;rounded=0;orthogonalLoop=1;jettySize=auto;html=1;exitX=0.5;exitY=1;exitDx=0;exitDy=0;" edge="1" parent="1" source="Ce9PWzFnnpV4fpaLvh9y-44" target="Ce9PWzFnnpV4fpaLvh9y-46">
          <mxGeometry relative="1" as="geometry" />
        </mxCell>
        <mxCell id="Ce9PWzFnnpV4fpaLvh9y-44" value="Nhập tài khoản và mật khẩu(có thể bỏ qua)" style="rounded=1;whiteSpace=wrap;html=1;arcSize=40;fontColor=#000000;fillColor=#ffffc0;strokeColor=#ff0000;" vertex="1" parent="1">
          <mxGeometry x="137.5" y="780" width="135" height="40" as="geometry" />
        </mxCell>
        <mxCell id="Ce9PWzFnnpV4fpaLvh9y-58" style="edgeStyle=none;rounded=0;orthogonalLoop=1;jettySize=auto;html=1;exitX=0.5;exitY=1;exitDx=0;exitDy=0;entryX=0.5;entryY=0;entryDx=0;entryDy=0;" edge="1" parent="1" source="Ce9PWzFnnpV4fpaLvh9y-46" target="Ce9PWzFnnpV4fpaLvh9y-49">
          <mxGeometry relative="1" as="geometry" />
        </mxCell>
        <mxCell id="Ce9PWzFnnpV4fpaLvh9y-46" value="Bấm nút &quot;login&quot; hoặc &quot;login as guest&quot;" style="rounded=1;whiteSpace=wrap;html=1;arcSize=40;fontColor=#000000;fillColor=#ffffc0;strokeColor=#ff0000;" vertex="1" parent="1">
          <mxGeometry x="145" y="880" width="120" height="40" as="geometry" />
        </mxCell>
        <mxCell id="Ce9PWzFnnpV4fpaLvh9y-54" style="edgeStyle=none;rounded=0;orthogonalLoop=1;jettySize=auto;html=1;exitX=0.5;exitY=1;exitDx=0;exitDy=0;entryX=0.5;entryY=0;entryDx=0;entryDy=0;" edge="1" parent="1" source="Ce9PWzFnnpV4fpaLvh9y-48" target="Ce9PWzFnnpV4fpaLvh9y-53">
          <mxGeometry relative="1" as="geometry" />
        </mxCell>
        <mxCell id="Ce9PWzFnnpV4fpaLvh9y-48" value="cho phép đăng nhập" style="rounded=1;whiteSpace=wrap;html=1;arcSize=40;fontColor=#000000;fillColor=#ffffc0;strokeColor=#ff0000;" vertex="1" parent="1">
          <mxGeometry x="145" y="1050" width="120" height="40" as="geometry" />
        </mxCell>
        <mxCell id="Ce9PWzFnnpV4fpaLvh9y-49" value="Kiểm tra thông tin" style="rhombus;whiteSpace=wrap;html=1;fontColor=#000000;fillColor=#ffffc0;strokeColor=#ff0000;" vertex="1" parent="1">
          <mxGeometry x="155" y="940" width="100" height="70" as="geometry" />
        </mxCell>
        <mxCell id="Ce9PWzFnnpV4fpaLvh9y-50" value="no" style="edgeStyle=orthogonalEdgeStyle;html=1;align=left;verticalAlign=bottom;endArrow=open;endSize=8;strokeColor=#ff0000;rounded=0;entryX=0;entryY=0.5;entryDx=0;entryDy=0;" edge="1" source="Ce9PWzFnnpV4fpaLvh9y-49" parent="1" target="Ce9PWzFnnpV4fpaLvh9y-52">
          <mxGeometry x="-1" relative="1" as="geometry">
            <mxPoint x="200" y="970" as="targetPoint" />
          </mxGeometry>
        </mxCell>
        <mxCell id="Ce9PWzFnnpV4fpaLvh9y-51" value="yes" style="edgeStyle=orthogonalEdgeStyle;html=1;align=left;verticalAlign=top;endArrow=open;endSize=8;strokeColor=#ff0000;rounded=0;entryX=0.5;entryY=0;entryDx=0;entryDy=0;" edge="1" source="Ce9PWzFnnpV4fpaLvh9y-49" parent="1" target="Ce9PWzFnnpV4fpaLvh9y-48">
          <mxGeometry x="-1" relative="1" as="geometry">
            <mxPoint x="60" y="1050" as="targetPoint" />
          </mxGeometry>
        </mxCell>
        <mxCell id="Ce9PWzFnnpV4fpaLvh9y-60" style="edgeStyle=orthogonalEdgeStyle;rounded=0;orthogonalLoop=1;jettySize=auto;html=1;exitX=0.5;exitY=1;exitDx=0;exitDy=0;entryX=1;entryY=0.5;entryDx=0;entryDy=0;" edge="1" parent="1" source="Ce9PWzFnnpV4fpaLvh9y-52" target="Ce9PWzFnnpV4fpaLvh9y-53">
          <mxGeometry relative="1" as="geometry" />
        </mxCell>
        <mxCell id="Ce9PWzFnnpV4fpaLvh9y-52" value="Thông báo lỗi" style="rounded=1;whiteSpace=wrap;html=1;arcSize=40;fontColor=#000000;fillColor=#ffffc0;strokeColor=#ff0000;" vertex="1" parent="1">
          <mxGeometry x="300" y="955" width="120" height="40" as="geometry" />
        </mxCell>
        <mxCell id="Ce9PWzFnnpV4fpaLvh9y-53" value="" style="ellipse;html=1;shape=endState;fillColor=#000000;strokeColor=#ff0000;" vertex="1" parent="1">
          <mxGeometry x="190" y="1120" width="30" height="30" as="geometry" />
        </mxCell>
        <mxCell id="Ce9PWzFnnpV4fpaLvh9y-62" style="edgeStyle=orthogonalEdgeStyle;rounded=0;orthogonalLoop=1;jettySize=auto;html=1;exitX=0.5;exitY=1;exitDx=0;exitDy=0;entryX=0.5;entryY=0;entryDx=0;entryDy=0;" edge="1" parent="1" source="Ce9PWzFnnpV4fpaLvh9y-63" target="Ce9PWzFnnpV4fpaLvh9y-65">
          <mxGeometry relative="1" as="geometry" />
        </mxCell>
        <mxCell id="Ce9PWzFnnpV4fpaLvh9y-63" value="" style="ellipse;html=1;shape=endState;fillColor=#000000;strokeColor=#ff0000;" vertex="1" parent="1">
          <mxGeometry x="622.5" y="690" width="30" height="30" as="geometry" />
        </mxCell>
        <mxCell id="Ce9PWzFnnpV4fpaLvh9y-64" style="edgeStyle=none;rounded=0;orthogonalLoop=1;jettySize=auto;html=1;exitX=0.5;exitY=1;exitDx=0;exitDy=0;" edge="1" parent="1" source="Ce9PWzFnnpV4fpaLvh9y-65" target="Ce9PWzFnnpV4fpaLvh9y-67">
          <mxGeometry relative="1" as="geometry" />
        </mxCell>
        <mxCell id="Ce9PWzFnnpV4fpaLvh9y-65" value="Nhập tài khoản và mật khẩu" style="rounded=1;whiteSpace=wrap;html=1;arcSize=40;fontColor=#000000;fillColor=#ffffc0;strokeColor=#ff0000;" vertex="1" parent="1">
          <mxGeometry x="570" y="760" width="135" height="40" as="geometry" />
        </mxCell>
        <mxCell id="Ce9PWzFnnpV4fpaLvh9y-66" style="edgeStyle=none;rounded=0;orthogonalLoop=1;jettySize=auto;html=1;exitX=0.5;exitY=1;exitDx=0;exitDy=0;entryX=0.5;entryY=0;entryDx=0;entryDy=0;" edge="1" parent="1" source="Ce9PWzFnnpV4fpaLvh9y-67" target="Ce9PWzFnnpV4fpaLvh9y-70">
          <mxGeometry relative="1" as="geometry" />
        </mxCell>
        <mxCell id="Ce9PWzFnnpV4fpaLvh9y-67" value="bấm nút register" style="rounded=1;whiteSpace=wrap;html=1;arcSize=40;fontColor=#000000;fillColor=#ffffc0;strokeColor=#ff0000;" vertex="1" parent="1">
          <mxGeometry x="577.5" y="860" width="120" height="40" as="geometry" />
        </mxCell>
        <mxCell id="Ce9PWzFnnpV4fpaLvh9y-68" style="edgeStyle=none;rounded=0;orthogonalLoop=1;jettySize=auto;html=1;exitX=0.5;exitY=1;exitDx=0;exitDy=0;entryX=0.5;entryY=0;entryDx=0;entryDy=0;" edge="1" parent="1" source="Ce9PWzFnnpV4fpaLvh9y-69" target="Ce9PWzFnnpV4fpaLvh9y-75">
          <mxGeometry relative="1" as="geometry" />
        </mxCell>
        <mxCell id="Ce9PWzFnnpV4fpaLvh9y-69" value="Đăng ký thành công và cho phép truy cập hệ thống" style="rounded=1;whiteSpace=wrap;html=1;arcSize=40;fontColor=#000000;fillColor=#ffffc0;strokeColor=#ff0000;" vertex="1" parent="1">
          <mxGeometry x="577.5" y="1010" width="122.5" height="60" as="geometry" />
        </mxCell>
        <mxCell id="Ce9PWzFnnpV4fpaLvh9y-70" value="Kiểm tra thông tin" style="rhombus;whiteSpace=wrap;html=1;fontColor=#000000;fillColor=#ffffc0;strokeColor=#ff0000;" vertex="1" parent="1">
          <mxGeometry x="587.5" y="920" width="100" height="70" as="geometry" />
        </mxCell>
        <mxCell id="Ce9PWzFnnpV4fpaLvh9y-71" value="no" style="edgeStyle=orthogonalEdgeStyle;html=1;align=left;verticalAlign=bottom;endArrow=open;endSize=8;strokeColor=#ff0000;rounded=0;entryX=0;entryY=0.5;entryDx=0;entryDy=0;" edge="1" parent="1" source="Ce9PWzFnnpV4fpaLvh9y-70" target="Ce9PWzFnnpV4fpaLvh9y-74">
          <mxGeometry x="-1" relative="1" as="geometry">
            <mxPoint x="632.5" y="950" as="targetPoint" />
          </mxGeometry>
        </mxCell>
        <mxCell id="Ce9PWzFnnpV4fpaLvh9y-72" value="yes" style="edgeStyle=orthogonalEdgeStyle;html=1;align=left;verticalAlign=top;endArrow=open;endSize=8;strokeColor=#ff0000;rounded=0;entryX=0.5;entryY=0;entryDx=0;entryDy=0;" edge="1" parent="1" source="Ce9PWzFnnpV4fpaLvh9y-70" target="Ce9PWzFnnpV4fpaLvh9y-69">
          <mxGeometry x="-1" relative="1" as="geometry">
            <mxPoint x="492.5" y="1030" as="targetPoint" />
          </mxGeometry>
        </mxCell>
        <mxCell id="Ce9PWzFnnpV4fpaLvh9y-73" style="edgeStyle=orthogonalEdgeStyle;rounded=0;orthogonalLoop=1;jettySize=auto;html=1;exitX=0.5;exitY=1;exitDx=0;exitDy=0;entryX=1;entryY=0.5;entryDx=0;entryDy=0;" edge="1" parent="1" source="Ce9PWzFnnpV4fpaLvh9y-74" target="Ce9PWzFnnpV4fpaLvh9y-75">
          <mxGeometry relative="1" as="geometry" />
        </mxCell>
        <mxCell id="Ce9PWzFnnpV4fpaLvh9y-74" value="Thông báo lỗi" style="rounded=1;whiteSpace=wrap;html=1;arcSize=40;fontColor=#000000;fillColor=#ffffc0;strokeColor=#ff0000;" vertex="1" parent="1">
          <mxGeometry x="732.5" y="935" width="120" height="40" as="geometry" />
        </mxCell>
        <mxCell id="Ce9PWzFnnpV4fpaLvh9y-75" value="" style="ellipse;html=1;shape=endState;fillColor=#000000;strokeColor=#ff0000;" vertex="1" parent="1">
          <mxGeometry x="622.5" y="1100" width="30" height="30" as="geometry" />
        </mxCell>
        <mxCell id="Ce9PWzFnnpV4fpaLvh9y-76" style="edgeStyle=orthogonalEdgeStyle;rounded=0;orthogonalLoop=1;jettySize=auto;html=1;exitX=0.5;exitY=1;exitDx=0;exitDy=0;entryX=0.5;entryY=0;entryDx=0;entryDy=0;" edge="1" parent="1" source="Ce9PWzFnnpV4fpaLvh9y-77" target="Ce9PWzFnnpV4fpaLvh9y-79">
          <mxGeometry relative="1" as="geometry" />
        </mxCell>
        <mxCell id="Ce9PWzFnnpV4fpaLvh9y-77" value="" style="ellipse;html=1;shape=endState;fillColor=#000000;strokeColor=#ff0000;" vertex="1" parent="1">
          <mxGeometry x="198.75" y="3400" width="30" height="30" as="geometry" />
        </mxCell>
        <mxCell id="Ce9PWzFnnpV4fpaLvh9y-78" style="edgeStyle=none;rounded=0;orthogonalLoop=1;jettySize=auto;html=1;exitX=0.5;exitY=1;exitDx=0;exitDy=0;" edge="1" parent="1" source="Ce9PWzFnnpV4fpaLvh9y-79" target="Ce9PWzFnnpV4fpaLvh9y-81">
          <mxGeometry relative="1" as="geometry" />
        </mxCell>
        <mxCell id="Ce9PWzFnnpV4fpaLvh9y-79" value="Chọn tab Bill" style="rounded=1;whiteSpace=wrap;html=1;arcSize=40;fontColor=#000000;fillColor=#ffffc0;strokeColor=#ff0000;" vertex="1" parent="1">
          <mxGeometry x="146.25" y="3470" width="135" height="40" as="geometry" />
        </mxCell>
        <mxCell id="Ce9PWzFnnpV4fpaLvh9y-102" style="edgeStyle=orthogonalEdgeStyle;rounded=0;orthogonalLoop=1;jettySize=auto;html=1;exitX=0.5;exitY=1;exitDx=0;exitDy=0;" edge="1" parent="1" source="Ce9PWzFnnpV4fpaLvh9y-81" target="Ce9PWzFnnpV4fpaLvh9y-91">
          <mxGeometry relative="1" as="geometry" />
        </mxCell>
        <mxCell id="Ce9PWzFnnpV4fpaLvh9y-81" value="Hệ thống hiển thị danh sách lên giao diện" style="rounded=1;whiteSpace=wrap;html=1;arcSize=40;fontColor=#000000;fillColor=#ffffc0;strokeColor=#ff0000;" vertex="1" parent="1">
          <mxGeometry x="131.25" y="3531" width="167.5" height="40" as="geometry" />
        </mxCell>
        <mxCell id="Ce9PWzFnnpV4fpaLvh9y-89" value="" style="ellipse;html=1;shape=endState;fillColor=#000000;strokeColor=#ff0000;" vertex="1" parent="1">
          <mxGeometry x="200" y="3985" width="30" height="30" as="geometry" />
        </mxCell>
        <mxCell id="Ce9PWzFnnpV4fpaLvh9y-107" style="edgeStyle=orthogonalEdgeStyle;rounded=0;orthogonalLoop=1;jettySize=auto;html=1;exitX=0.5;exitY=1;exitDx=0;exitDy=0;entryX=0.5;entryY=0;entryDx=0;entryDy=0;" edge="1" parent="1" source="Ce9PWzFnnpV4fpaLvh9y-91" target="Ce9PWzFnnpV4fpaLvh9y-92">
          <mxGeometry relative="1" as="geometry" />
        </mxCell>
        <mxCell id="Ce9PWzFnnpV4fpaLvh9y-91" value="Chọn đơn hàng cần cập nhật" style="rounded=1;whiteSpace=wrap;html=1;arcSize=40;fontColor=#000000;fillColor=#ffffc0;strokeColor=#ff0000;" vertex="1" parent="1">
          <mxGeometry x="131.25" y="3591" width="167.5" height="40" as="geometry" />
        </mxCell>
        <mxCell id="Ce9PWzFnnpV4fpaLvh9y-185" style="edgeStyle=orthogonalEdgeStyle;rounded=0;orthogonalLoop=1;jettySize=auto;html=1;exitX=0.5;exitY=1;exitDx=0;exitDy=0;entryX=0.5;entryY=0;entryDx=0;entryDy=0;" edge="1" parent="1" source="Ce9PWzFnnpV4fpaLvh9y-92" target="Ce9PWzFnnpV4fpaLvh9y-96">
          <mxGeometry relative="1" as="geometry">
            <mxPoint x="214" y="3770" as="targetPoint" />
          </mxGeometry>
        </mxCell>
        <mxCell id="Ce9PWzFnnpV4fpaLvh9y-92" value="Nhấn &quot;Done&quot; hoặc &quot;Cancle&quot;" style="rounded=1;whiteSpace=wrap;html=1;arcSize=40;fontColor=#000000;fillColor=#ffffc0;strokeColor=#ff0000;" vertex="1" parent="1">
          <mxGeometry x="130" y="3651" width="167.5" height="40" as="geometry" />
        </mxCell>
        <mxCell id="Ce9PWzFnnpV4fpaLvh9y-101" style="edgeStyle=orthogonalEdgeStyle;rounded=0;orthogonalLoop=1;jettySize=auto;html=1;exitX=1;exitY=0.5;exitDx=0;exitDy=0;entryX=0;entryY=0.5;entryDx=0;entryDy=0;" edge="1" parent="1" source="Ce9PWzFnnpV4fpaLvh9y-96" target="Ce9PWzFnnpV4fpaLvh9y-99">
          <mxGeometry relative="1" as="geometry" />
        </mxCell>
        <mxCell id="Ce9PWzFnnpV4fpaLvh9y-103" style="edgeStyle=orthogonalEdgeStyle;rounded=0;orthogonalLoop=1;jettySize=auto;html=1;exitX=0.5;exitY=1;exitDx=0;exitDy=0;entryX=0.5;entryY=0;entryDx=0;entryDy=0;" edge="1" parent="1" source="Ce9PWzFnnpV4fpaLvh9y-96" target="Ce9PWzFnnpV4fpaLvh9y-100">
          <mxGeometry relative="1" as="geometry" />
        </mxCell>
        <mxCell id="Ce9PWzFnnpV4fpaLvh9y-96" value="Kiểm tra thông tin" style="rhombus;whiteSpace=wrap;html=1;fontColor=#000000;fillColor=#ffffc0;strokeColor=#ff0000;" vertex="1" parent="1">
          <mxGeometry x="143.75" y="3771" width="140" height="60" as="geometry" />
        </mxCell>
        <mxCell id="Ce9PWzFnnpV4fpaLvh9y-108" style="edgeStyle=orthogonalEdgeStyle;rounded=0;orthogonalLoop=1;jettySize=auto;html=1;exitX=0.5;exitY=1;exitDx=0;exitDy=0;entryX=1;entryY=0.5;entryDx=0;entryDy=0;" edge="1" parent="1" source="Ce9PWzFnnpV4fpaLvh9y-99" target="Ce9PWzFnnpV4fpaLvh9y-89">
          <mxGeometry relative="1" as="geometry" />
        </mxCell>
        <mxCell id="Ce9PWzFnnpV4fpaLvh9y-99" value="Báo lỗi" style="rounded=1;whiteSpace=wrap;html=1;arcSize=40;fontColor=#000000;fillColor=#ffffc0;strokeColor=#ff0000;" vertex="1" parent="1">
          <mxGeometry x="338.75" y="3781" width="167.5" height="40" as="geometry" />
        </mxCell>
        <mxCell id="Ce9PWzFnnpV4fpaLvh9y-109" style="edgeStyle=orthogonalEdgeStyle;rounded=0;orthogonalLoop=1;jettySize=auto;html=1;exitX=0.5;exitY=1;exitDx=0;exitDy=0;" edge="1" parent="1" source="Ce9PWzFnnpV4fpaLvh9y-100" target="Ce9PWzFnnpV4fpaLvh9y-89">
          <mxGeometry relative="1" as="geometry" />
        </mxCell>
        <mxCell id="Ce9PWzFnnpV4fpaLvh9y-100" value="Thêm vào danh sách chờ" style="rounded=1;whiteSpace=wrap;html=1;arcSize=40;fontColor=#000000;fillColor=#ffffc0;strokeColor=#ff0000;" vertex="1" parent="1">
          <mxGeometry x="130" y="3891" width="167.5" height="40" as="geometry" />
        </mxCell>
        <mxCell id="Ce9PWzFnnpV4fpaLvh9y-110" style="edgeStyle=orthogonalEdgeStyle;rounded=0;orthogonalLoop=1;jettySize=auto;html=1;exitX=0.5;exitY=1;exitDx=0;exitDy=0;entryX=0.5;entryY=0;entryDx=0;entryDy=0;" edge="1" parent="1" source="Ce9PWzFnnpV4fpaLvh9y-111" target="Ce9PWzFnnpV4fpaLvh9y-113">
          <mxGeometry relative="1" as="geometry" />
        </mxCell>
        <mxCell id="Ce9PWzFnnpV4fpaLvh9y-111" value="" style="ellipse;html=1;shape=endState;fillColor=#000000;strokeColor=#ff0000;" vertex="1" parent="1">
          <mxGeometry x="698.75" y="1192.5" width="30" height="30" as="geometry" />
        </mxCell>
        <mxCell id="Ce9PWzFnnpV4fpaLvh9y-112" style="edgeStyle=none;rounded=0;orthogonalLoop=1;jettySize=auto;html=1;exitX=0.5;exitY=1;exitDx=0;exitDy=0;" edge="1" parent="1" source="Ce9PWzFnnpV4fpaLvh9y-113" target="Ce9PWzFnnpV4fpaLvh9y-115">
          <mxGeometry relative="1" as="geometry" />
        </mxCell>
        <mxCell id="Ce9PWzFnnpV4fpaLvh9y-113" value="Chọn tab Bill" style="rounded=1;whiteSpace=wrap;html=1;arcSize=40;fontColor=#000000;fillColor=#ffffc0;strokeColor=#ff0000;" vertex="1" parent="1">
          <mxGeometry x="646.25" y="1262.5" width="135" height="40" as="geometry" />
        </mxCell>
        <mxCell id="Ce9PWzFnnpV4fpaLvh9y-130" style="edgeStyle=orthogonalEdgeStyle;rounded=0;orthogonalLoop=1;jettySize=auto;html=1;exitX=0.5;exitY=1;exitDx=0;exitDy=0;entryX=0.5;entryY=0;entryDx=0;entryDy=0;" edge="1" parent="1" source="Ce9PWzFnnpV4fpaLvh9y-115" target="Ce9PWzFnnpV4fpaLvh9y-116">
          <mxGeometry relative="1" as="geometry" />
        </mxCell>
        <mxCell id="Ce9PWzFnnpV4fpaLvh9y-115" value="Hệ thống hiển thị danh sách lên giao diện" style="rounded=1;whiteSpace=wrap;html=1;arcSize=40;fontColor=#000000;fillColor=#ffffc0;strokeColor=#ff0000;" vertex="1" parent="1">
          <mxGeometry x="631.25" y="1323.5" width="167.5" height="40" as="geometry" />
        </mxCell>
        <mxCell id="Ce9PWzFnnpV4fpaLvh9y-116" value="" style="ellipse;html=1;shape=endState;fillColor=#000000;strokeColor=#ff0000;" vertex="1" parent="1">
          <mxGeometry x="700" y="1410" width="30" height="30" as="geometry" />
        </mxCell>
        <mxCell id="Ce9PWzFnnpV4fpaLvh9y-132" style="edgeStyle=orthogonalEdgeStyle;rounded=0;orthogonalLoop=1;jettySize=auto;html=1;exitX=0.5;exitY=1;exitDx=0;exitDy=0;entryX=0.5;entryY=0;entryDx=0;entryDy=0;" edge="1" source="Ce9PWzFnnpV4fpaLvh9y-133" target="Ce9PWzFnnpV4fpaLvh9y-135" parent="1">
          <mxGeometry relative="1" as="geometry" />
        </mxCell>
        <mxCell id="Ce9PWzFnnpV4fpaLvh9y-133" value="" style="ellipse;html=1;shape=endState;fillColor=#000000;strokeColor=#ff0000;" vertex="1" parent="1">
          <mxGeometry x="128.75" y="1830" width="30" height="30" as="geometry" />
        </mxCell>
        <mxCell id="Ce9PWzFnnpV4fpaLvh9y-134" style="edgeStyle=none;rounded=0;orthogonalLoop=1;jettySize=auto;html=1;exitX=0.5;exitY=1;exitDx=0;exitDy=0;" edge="1" source="Ce9PWzFnnpV4fpaLvh9y-135" target="Ce9PWzFnnpV4fpaLvh9y-137" parent="1">
          <mxGeometry relative="1" as="geometry" />
        </mxCell>
        <mxCell id="Ce9PWzFnnpV4fpaLvh9y-135" value="Chọn tab Add Item" style="rounded=1;whiteSpace=wrap;html=1;arcSize=40;fontColor=#000000;fillColor=#ffffc0;strokeColor=#ff0000;" vertex="1" parent="1">
          <mxGeometry x="76.25" y="1900" width="135" height="40" as="geometry" />
        </mxCell>
        <mxCell id="Ce9PWzFnnpV4fpaLvh9y-136" style="edgeStyle=orthogonalEdgeStyle;rounded=0;orthogonalLoop=1;jettySize=auto;html=1;exitX=0.5;exitY=1;exitDx=0;exitDy=0;" edge="1" source="Ce9PWzFnnpV4fpaLvh9y-137" target="Ce9PWzFnnpV4fpaLvh9y-140" parent="1">
          <mxGeometry relative="1" as="geometry" />
        </mxCell>
        <mxCell id="Ce9PWzFnnpV4fpaLvh9y-137" value="Nhập thông tin" style="rounded=1;whiteSpace=wrap;html=1;arcSize=40;fontColor=#000000;fillColor=#ffffc0;strokeColor=#ff0000;" vertex="1" parent="1">
          <mxGeometry x="61.25" y="1961" width="167.5" height="40" as="geometry" />
        </mxCell>
        <mxCell id="Ce9PWzFnnpV4fpaLvh9y-138" value="" style="ellipse;html=1;shape=endState;fillColor=#000000;strokeColor=#ff0000;" vertex="1" parent="1">
          <mxGeometry x="130" y="2280" width="30" height="30" as="geometry" />
        </mxCell>
        <mxCell id="Ce9PWzFnnpV4fpaLvh9y-152" style="edgeStyle=orthogonalEdgeStyle;rounded=0;orthogonalLoop=1;jettySize=auto;html=1;exitX=0.5;exitY=1;exitDx=0;exitDy=0;" edge="1" parent="1" source="Ce9PWzFnnpV4fpaLvh9y-140" target="Ce9PWzFnnpV4fpaLvh9y-147">
          <mxGeometry relative="1" as="geometry">
            <mxPoint x="145.24137931034488" y="2200" as="targetPoint" />
          </mxGeometry>
        </mxCell>
        <mxCell id="Ce9PWzFnnpV4fpaLvh9y-140" value="Bấm Add" style="rounded=1;whiteSpace=wrap;html=1;arcSize=40;fontColor=#000000;fillColor=#ffffc0;strokeColor=#ff0000;" vertex="1" parent="1">
          <mxGeometry x="61.25" y="2021" width="167.5" height="40" as="geometry" />
        </mxCell>
        <mxCell id="Ce9PWzFnnpV4fpaLvh9y-145" style="edgeStyle=orthogonalEdgeStyle;rounded=0;orthogonalLoop=1;jettySize=auto;html=1;exitX=1;exitY=0.5;exitDx=0;exitDy=0;entryX=0;entryY=0.5;entryDx=0;entryDy=0;" edge="1" source="Ce9PWzFnnpV4fpaLvh9y-147" target="Ce9PWzFnnpV4fpaLvh9y-149" parent="1">
          <mxGeometry relative="1" as="geometry" />
        </mxCell>
        <mxCell id="Ce9PWzFnnpV4fpaLvh9y-146" style="edgeStyle=orthogonalEdgeStyle;rounded=0;orthogonalLoop=1;jettySize=auto;html=1;exitX=0.5;exitY=1;exitDx=0;exitDy=0;entryX=0.5;entryY=0;entryDx=0;entryDy=0;" edge="1" source="Ce9PWzFnnpV4fpaLvh9y-147" target="Ce9PWzFnnpV4fpaLvh9y-151" parent="1">
          <mxGeometry relative="1" as="geometry" />
        </mxCell>
        <mxCell id="Ce9PWzFnnpV4fpaLvh9y-147" value="Kiểm tra thông tin" style="rhombus;whiteSpace=wrap;html=1;fontColor=#000000;fillColor=#ffffc0;strokeColor=#ff0000;" vertex="1" parent="1">
          <mxGeometry x="75" y="2110" width="140" height="60" as="geometry" />
        </mxCell>
        <mxCell id="Ce9PWzFnnpV4fpaLvh9y-148" style="edgeStyle=orthogonalEdgeStyle;rounded=0;orthogonalLoop=1;jettySize=auto;html=1;exitX=0.5;exitY=1;exitDx=0;exitDy=0;entryX=1;entryY=0.5;entryDx=0;entryDy=0;" edge="1" source="Ce9PWzFnnpV4fpaLvh9y-149" target="Ce9PWzFnnpV4fpaLvh9y-138" parent="1">
          <mxGeometry relative="1" as="geometry" />
        </mxCell>
        <mxCell id="Ce9PWzFnnpV4fpaLvh9y-149" value="Báo lỗi" style="rounded=1;whiteSpace=wrap;html=1;arcSize=40;fontColor=#000000;fillColor=#ffffc0;strokeColor=#ff0000;" vertex="1" parent="1">
          <mxGeometry x="255" y="2120" width="167.5" height="40" as="geometry" />
        </mxCell>
        <mxCell id="Ce9PWzFnnpV4fpaLvh9y-150" style="edgeStyle=orthogonalEdgeStyle;rounded=0;orthogonalLoop=1;jettySize=auto;html=1;exitX=0.5;exitY=1;exitDx=0;exitDy=0;" edge="1" source="Ce9PWzFnnpV4fpaLvh9y-151" target="Ce9PWzFnnpV4fpaLvh9y-138" parent="1">
          <mxGeometry relative="1" as="geometry" />
        </mxCell>
        <mxCell id="Ce9PWzFnnpV4fpaLvh9y-151" value="Cập nhật lại menu" style="rounded=1;whiteSpace=wrap;html=1;arcSize=40;fontColor=#000000;fillColor=#ffffc0;strokeColor=#ff0000;" vertex="1" parent="1">
          <mxGeometry x="61.25" y="2200" width="167.5" height="40" as="geometry" />
        </mxCell>
        <mxCell id="Ce9PWzFnnpV4fpaLvh9y-153" style="edgeStyle=orthogonalEdgeStyle;rounded=0;orthogonalLoop=1;jettySize=auto;html=1;exitX=0.5;exitY=1;exitDx=0;exitDy=0;entryX=0.5;entryY=0;entryDx=0;entryDy=0;" edge="1" parent="1" source="Ce9PWzFnnpV4fpaLvh9y-154" target="Ce9PWzFnnpV4fpaLvh9y-156">
          <mxGeometry relative="1" as="geometry" />
        </mxCell>
        <mxCell id="Ce9PWzFnnpV4fpaLvh9y-154" value="" style="ellipse;html=1;shape=endState;fillColor=#000000;strokeColor=#ff0000;" vertex="1" parent="1">
          <mxGeometry x="126.25" y="2330" width="30" height="30" as="geometry" />
        </mxCell>
        <mxCell id="Ce9PWzFnnpV4fpaLvh9y-155" style="edgeStyle=none;rounded=0;orthogonalLoop=1;jettySize=auto;html=1;exitX=0.5;exitY=1;exitDx=0;exitDy=0;" edge="1" parent="1" source="Ce9PWzFnnpV4fpaLvh9y-156" target="Ce9PWzFnnpV4fpaLvh9y-158">
          <mxGeometry relative="1" as="geometry" />
        </mxCell>
        <mxCell id="Ce9PWzFnnpV4fpaLvh9y-156" value="Chọn tab Edit Item" style="rounded=1;whiteSpace=wrap;html=1;arcSize=40;fontColor=#000000;fillColor=#ffffc0;strokeColor=#ff0000;" vertex="1" parent="1">
          <mxGeometry x="73.75" y="2400" width="135" height="40" as="geometry" />
        </mxCell>
        <mxCell id="Ce9PWzFnnpV4fpaLvh9y-157" style="edgeStyle=orthogonalEdgeStyle;rounded=0;orthogonalLoop=1;jettySize=auto;html=1;exitX=0.5;exitY=1;exitDx=0;exitDy=0;" edge="1" parent="1" source="Ce9PWzFnnpV4fpaLvh9y-158" target="Ce9PWzFnnpV4fpaLvh9y-161">
          <mxGeometry relative="1" as="geometry" />
        </mxCell>
        <mxCell id="Ce9PWzFnnpV4fpaLvh9y-158" value="Chọn món ăn cần sửa" style="rounded=1;whiteSpace=wrap;html=1;arcSize=40;fontColor=#000000;fillColor=#ffffc0;strokeColor=#ff0000;" vertex="1" parent="1">
          <mxGeometry x="58.75" y="2461" width="167.5" height="40" as="geometry" />
        </mxCell>
        <mxCell id="Ce9PWzFnnpV4fpaLvh9y-159" value="" style="ellipse;html=1;shape=endState;fillColor=#000000;strokeColor=#ff0000;" vertex="1" parent="1">
          <mxGeometry x="127.5" y="2780" width="30" height="30" as="geometry" />
        </mxCell>
        <mxCell id="Ce9PWzFnnpV4fpaLvh9y-160" style="edgeStyle=orthogonalEdgeStyle;rounded=0;orthogonalLoop=1;jettySize=auto;html=1;exitX=0.5;exitY=1;exitDx=0;exitDy=0;" edge="1" parent="1" source="Ce9PWzFnnpV4fpaLvh9y-161" target="Ce9PWzFnnpV4fpaLvh9y-164">
          <mxGeometry relative="1" as="geometry">
            <mxPoint x="142.74137931034488" y="2700" as="targetPoint" />
          </mxGeometry>
        </mxCell>
        <mxCell id="Ce9PWzFnnpV4fpaLvh9y-161" value="Sửa thông tin và bấm update" style="rounded=1;whiteSpace=wrap;html=1;arcSize=40;fontColor=#000000;fillColor=#ffffc0;strokeColor=#ff0000;" vertex="1" parent="1">
          <mxGeometry x="58.75" y="2521" width="167.5" height="40" as="geometry" />
        </mxCell>
        <mxCell id="Ce9PWzFnnpV4fpaLvh9y-162" style="edgeStyle=orthogonalEdgeStyle;rounded=0;orthogonalLoop=1;jettySize=auto;html=1;exitX=1;exitY=0.5;exitDx=0;exitDy=0;entryX=0;entryY=0.5;entryDx=0;entryDy=0;" edge="1" parent="1" source="Ce9PWzFnnpV4fpaLvh9y-164" target="Ce9PWzFnnpV4fpaLvh9y-166">
          <mxGeometry relative="1" as="geometry" />
        </mxCell>
        <mxCell id="Ce9PWzFnnpV4fpaLvh9y-163" style="edgeStyle=orthogonalEdgeStyle;rounded=0;orthogonalLoop=1;jettySize=auto;html=1;exitX=0.5;exitY=1;exitDx=0;exitDy=0;entryX=0.5;entryY=0;entryDx=0;entryDy=0;" edge="1" parent="1" source="Ce9PWzFnnpV4fpaLvh9y-164" target="Ce9PWzFnnpV4fpaLvh9y-168">
          <mxGeometry relative="1" as="geometry" />
        </mxCell>
        <mxCell id="Ce9PWzFnnpV4fpaLvh9y-164" value="Kiểm tra thông tin" style="rhombus;whiteSpace=wrap;html=1;fontColor=#000000;fillColor=#ffffc0;strokeColor=#ff0000;" vertex="1" parent="1">
          <mxGeometry x="72.5" y="2610" width="140" height="60" as="geometry" />
        </mxCell>
        <mxCell id="Ce9PWzFnnpV4fpaLvh9y-165" style="edgeStyle=orthogonalEdgeStyle;rounded=0;orthogonalLoop=1;jettySize=auto;html=1;exitX=0.5;exitY=1;exitDx=0;exitDy=0;entryX=1;entryY=0.5;entryDx=0;entryDy=0;" edge="1" parent="1" source="Ce9PWzFnnpV4fpaLvh9y-166" target="Ce9PWzFnnpV4fpaLvh9y-159">
          <mxGeometry relative="1" as="geometry" />
        </mxCell>
        <mxCell id="Ce9PWzFnnpV4fpaLvh9y-166" value="Báo lỗi" style="rounded=1;whiteSpace=wrap;html=1;arcSize=40;fontColor=#000000;fillColor=#ffffc0;strokeColor=#ff0000;" vertex="1" parent="1">
          <mxGeometry x="252.5" y="2620" width="167.5" height="40" as="geometry" />
        </mxCell>
        <mxCell id="Ce9PWzFnnpV4fpaLvh9y-167" style="edgeStyle=orthogonalEdgeStyle;rounded=0;orthogonalLoop=1;jettySize=auto;html=1;exitX=0.5;exitY=1;exitDx=0;exitDy=0;" edge="1" parent="1" source="Ce9PWzFnnpV4fpaLvh9y-168" target="Ce9PWzFnnpV4fpaLvh9y-159">
          <mxGeometry relative="1" as="geometry" />
        </mxCell>
        <mxCell id="Ce9PWzFnnpV4fpaLvh9y-168" value="Cập nhật lại menu" style="rounded=1;whiteSpace=wrap;html=1;arcSize=40;fontColor=#000000;fillColor=#ffffc0;strokeColor=#ff0000;" vertex="1" parent="1">
          <mxGeometry x="58.75" y="2700" width="167.5" height="40" as="geometry" />
        </mxCell>
        <mxCell id="Ce9PWzFnnpV4fpaLvh9y-169" style="edgeStyle=orthogonalEdgeStyle;rounded=0;orthogonalLoop=1;jettySize=auto;html=1;exitX=0.5;exitY=1;exitDx=0;exitDy=0;entryX=0.5;entryY=0;entryDx=0;entryDy=0;" edge="1" parent="1" source="Ce9PWzFnnpV4fpaLvh9y-170" target="Ce9PWzFnnpV4fpaLvh9y-172">
          <mxGeometry relative="1" as="geometry" />
        </mxCell>
        <mxCell id="Ce9PWzFnnpV4fpaLvh9y-170" value="" style="ellipse;html=1;shape=endState;fillColor=#000000;strokeColor=#ff0000;" vertex="1" parent="1">
          <mxGeometry x="121.88" y="2850" width="30" height="30" as="geometry" />
        </mxCell>
        <mxCell id="Ce9PWzFnnpV4fpaLvh9y-171" style="edgeStyle=none;rounded=0;orthogonalLoop=1;jettySize=auto;html=1;exitX=0.5;exitY=1;exitDx=0;exitDy=0;" edge="1" parent="1" source="Ce9PWzFnnpV4fpaLvh9y-172" target="Ce9PWzFnnpV4fpaLvh9y-174">
          <mxGeometry relative="1" as="geometry" />
        </mxCell>
        <mxCell id="Ce9PWzFnnpV4fpaLvh9y-172" value="Chọn tab Edit Item" style="rounded=1;whiteSpace=wrap;html=1;arcSize=40;fontColor=#000000;fillColor=#ffffc0;strokeColor=#ff0000;" vertex="1" parent="1">
          <mxGeometry x="69.38" y="2920" width="135" height="40" as="geometry" />
        </mxCell>
        <mxCell id="Ce9PWzFnnpV4fpaLvh9y-173" style="edgeStyle=orthogonalEdgeStyle;rounded=0;orthogonalLoop=1;jettySize=auto;html=1;exitX=0.5;exitY=1;exitDx=0;exitDy=0;" edge="1" parent="1" source="Ce9PWzFnnpV4fpaLvh9y-174" target="Ce9PWzFnnpV4fpaLvh9y-177">
          <mxGeometry relative="1" as="geometry" />
        </mxCell>
        <mxCell id="Ce9PWzFnnpV4fpaLvh9y-174" value="Chọn món ăn cần xóa" style="rounded=1;whiteSpace=wrap;html=1;arcSize=40;fontColor=#000000;fillColor=#ffffc0;strokeColor=#ff0000;" vertex="1" parent="1">
          <mxGeometry x="54.38" y="2981" width="167.5" height="40" as="geometry" />
        </mxCell>
        <mxCell id="Ce9PWzFnnpV4fpaLvh9y-175" value="" style="ellipse;html=1;shape=endState;fillColor=#000000;strokeColor=#ff0000;" vertex="1" parent="1">
          <mxGeometry x="123.13" y="3300" width="30" height="30" as="geometry" />
        </mxCell>
        <mxCell id="Ce9PWzFnnpV4fpaLvh9y-176" style="edgeStyle=orthogonalEdgeStyle;rounded=0;orthogonalLoop=1;jettySize=auto;html=1;exitX=0.5;exitY=1;exitDx=0;exitDy=0;" edge="1" parent="1" source="Ce9PWzFnnpV4fpaLvh9y-177" target="Ce9PWzFnnpV4fpaLvh9y-180">
          <mxGeometry relative="1" as="geometry">
            <mxPoint x="138.37137931034488" y="3220" as="targetPoint" />
          </mxGeometry>
        </mxCell>
        <mxCell id="Ce9PWzFnnpV4fpaLvh9y-177" value="Bấm delete" style="rounded=1;whiteSpace=wrap;html=1;arcSize=40;fontColor=#000000;fillColor=#ffffc0;strokeColor=#ff0000;" vertex="1" parent="1">
          <mxGeometry x="54.38" y="3041" width="167.5" height="40" as="geometry" />
        </mxCell>
        <mxCell id="Ce9PWzFnnpV4fpaLvh9y-178" style="edgeStyle=orthogonalEdgeStyle;rounded=0;orthogonalLoop=1;jettySize=auto;html=1;exitX=1;exitY=0.5;exitDx=0;exitDy=0;entryX=0;entryY=0.5;entryDx=0;entryDy=0;" edge="1" parent="1" source="Ce9PWzFnnpV4fpaLvh9y-180" target="Ce9PWzFnnpV4fpaLvh9y-182">
          <mxGeometry relative="1" as="geometry" />
        </mxCell>
        <mxCell id="Ce9PWzFnnpV4fpaLvh9y-179" style="edgeStyle=orthogonalEdgeStyle;rounded=0;orthogonalLoop=1;jettySize=auto;html=1;exitX=0.5;exitY=1;exitDx=0;exitDy=0;entryX=0.5;entryY=0;entryDx=0;entryDy=0;" edge="1" parent="1" source="Ce9PWzFnnpV4fpaLvh9y-180" target="Ce9PWzFnnpV4fpaLvh9y-184">
          <mxGeometry relative="1" as="geometry" />
        </mxCell>
        <mxCell id="Ce9PWzFnnpV4fpaLvh9y-180" value="Kiểm tra thông tin" style="rhombus;whiteSpace=wrap;html=1;fontColor=#000000;fillColor=#ffffc0;strokeColor=#ff0000;" vertex="1" parent="1">
          <mxGeometry x="68.13" y="3130" width="140" height="60" as="geometry" />
        </mxCell>
        <mxCell id="Ce9PWzFnnpV4fpaLvh9y-181" style="edgeStyle=orthogonalEdgeStyle;rounded=0;orthogonalLoop=1;jettySize=auto;html=1;exitX=0.5;exitY=1;exitDx=0;exitDy=0;entryX=1;entryY=0.5;entryDx=0;entryDy=0;" edge="1" parent="1" source="Ce9PWzFnnpV4fpaLvh9y-182" target="Ce9PWzFnnpV4fpaLvh9y-175">
          <mxGeometry relative="1" as="geometry" />
        </mxCell>
        <mxCell id="Ce9PWzFnnpV4fpaLvh9y-182" value="Báo lỗi" style="rounded=1;whiteSpace=wrap;html=1;arcSize=40;fontColor=#000000;fillColor=#ffffc0;strokeColor=#ff0000;" vertex="1" parent="1">
          <mxGeometry x="248.13" y="3140" width="167.5" height="40" as="geometry" />
        </mxCell>
        <mxCell id="Ce9PWzFnnpV4fpaLvh9y-183" style="edgeStyle=orthogonalEdgeStyle;rounded=0;orthogonalLoop=1;jettySize=auto;html=1;exitX=0.5;exitY=1;exitDx=0;exitDy=0;" edge="1" parent="1" source="Ce9PWzFnnpV4fpaLvh9y-184" target="Ce9PWzFnnpV4fpaLvh9y-175">
          <mxGeometry relative="1" as="geometry" />
        </mxCell>
        <mxCell id="Ce9PWzFnnpV4fpaLvh9y-184" value="Cập nhật lại menu" style="rounded=1;whiteSpace=wrap;html=1;arcSize=40;fontColor=#000000;fillColor=#ffffc0;strokeColor=#ff0000;" vertex="1" parent="1">
          <mxGeometry x="54.38" y="3220" width="167.5" height="40" as="geometry" />
        </mxCell>
      </root>
    </mxGraphModel>
  </diagram>
</mxfile>
